<?xml version="1.0" encoding="UTF-8" standalone="no"?>
<!-- Created with Inkscape (http://www.inkscape.org/) -->

<svg
   version="1.1"
   id="svg2"
   width="5333.3335"
   height="5333.3335"
   viewBox="0 0 5333.3335 5333.3335"
   sodipodi:docname="3500_7_10.eps"
   xmlns:inkscape="http://www.inkscape.org/namespaces/inkscape"
   xmlns:sodipodi="http://sodipodi.sourceforge.net/DTD/sodipodi-0.dtd"
   xmlns="http://www.w3.org/2000/svg"
   xmlns:svg="http://www.w3.org/2000/svg">
  <defs
     id="defs6" />
  <sodipodi:namedview
     id="namedview4"
     pagecolor="#ffffff"
     bordercolor="#000000"
     borderopacity="0.25"
     inkscape:showpageshadow="2"
     inkscape:pageopacity="0.0"
     inkscape:pagecheckerboard="0"
     inkscape:deskcolor="#d1d1d1" />
  <g
     id="g8"
     inkscape:groupmode="layer"
     inkscape:label="ink_ext_XXXXXX"
     transform="matrix(1.3333333,0,0,-1.3333333,0,5333.3333)">
    <g
       id="g10"
       transform="scale(0.1)">
      <path
         d="M 0,0 H 40000 V 40000 H 0 Z"
         style="fill:#ffd87d;fill-opacity:0;fill-rule:nonzero;stroke:none"
         id="path12" />
      <path
         d="m 33845,15508.2 c -164.1,34.1 -512.2,99.1 -897.6,118.3 -412.6,20.5 -868.5,-11.1 -1186.7,-187.5 -322.6,-178.6 -478.5,-460.6 -794.2,-699.8 -146.1,-111.1 -326.4,-212.7 -573.3,-291.3 -220.4,-70.1 -418.6,-93.6 -612.2,-105.1 -516.9,-31.2 -997.5,21.8 -1762.6,-507.5 -76.5,-53 -168.7,-103.4 -271.7,-150.4 -28.6,-13.7 -58.5,-26.5 -88.8,-39.3 -1.7,-0.9 -3.5,-1.7 -4.7,-2.2 -715.2,-302 -1822,-481 -1822,-481 L 20135.8,22054.1 32693.2,17431 33889,15572.2 c 20.1,-31.6 -7.3,-72.1 -44,-64"
         style="fill:#f91c1c;fill-opacity:1;fill-rule:nonzero;stroke:none"
         id="path14" />
      <path
         d="m 27507.9,13767.7 c -1345.3,1618.9 -1668.1,2264.2 -1734.9,2513 -46.1,171.7 -95.5,339.8 -147.7,503.9 10.4,21.4 19.4,43.8 26.8,67 93.1,-97.2 175.9,-204 246,-319 65.6,-106.7 121,-219.7 163.5,-337.5 10.7,-29.4 21.2,-58.8 30,-88.9 l 29.1,-96.7 c 20.5,-67.8 42.6,-135.7 67,-203.5 24.5,-67.8 51.8,-135.7 83.5,-203.8 32.2,-68.2 67.9,-136.6 118.4,-206.2 13.2,-17.4 25.4,-34.6 42,-52.3 l 23.7,-26.1 28.7,-26.1 c 17.4,-17.1 44.9,-34.2 68.6,-49.6 28.7,-14.6 63.5,-29.6 82.7,-33.8 22.6,-6.8 45.4,-13.1 70.9,-16.6 24.1,-4.9 50.5,-6.5 77.2,-7.1 1.8,0 3.5,0 5.3,0 51.7,0 107.1,8.6 158,29.2 108.1,40.7 183.1,120.7 233.2,194.6 49.8,74.5 81.9,149.7 106.5,223.5 280.6,-294.3 563.7,-643.4 676.1,-980.5 105.5,-316.2 58.7,-518.7 -30.3,-667.9 -3.7,-2.5 -7.5,-5.1 -11.2,-7.7 -107.8,-74.6 -251.3,-144.1 -413.1,-207.9 m 2030.9,735.2 c -657.1,440.5 -1402.2,984.7 -1980.3,1375.3 89.3,-5.7 178.9,-9.2 268.8,-9.2 40.6,0 81.3,0.7 122.1,2.3 131.2,4.7 263.1,16.6 395.3,38.1 66.2,12.6 132.3,24.9 198.3,43.4 67.4,16 126.3,38 189.8,56.9 247.4,85.5 501.9,195.8 715.7,398.4 39.1,38.1 75.8,79.9 109.2,124.7 378,-196 960.4,-496.7 1308,-876 182.4,-199 213.8,-422.3 188,-615.7 -171.8,-168.3 -368.7,-321.4 -712.3,-430.5 -272.6,-86.6 -510.1,-96 -761.6,-106.1 -13.7,-0.5 -27.3,-1.1 -41,-1.6 m 3591.9,1283.4 c -127.2,10.7 -260.4,17.4 -394.9,17.4 -84.5,0 -169.5,-2.6 -253.9,-8.6 -939.9,346.7 -2132,811.9 -2792.5,973.9 1.4,3.7 2.8,7.3 4.2,11 53.3,141 72.1,289.1 71,430.7 -4,69.9 -6.5,140.5 -18.4,207.7 -8.2,65.9 -23.5,140.5 -46.4,211.1 -2.8,9 -5.8,18 -9,26.9 1145.7,-568.5 2317.1,-1195.7 3439.9,-1870.1"
         style="fill:#d21c24;fill-opacity:1;fill-rule:nonzero;stroke:none"
         id="path16" />
      <path
         d="m 31053.7,15041.1 c 25.8,193.4 -5.6,416.7 -188,615.7 -347.6,379.3 -930,680 -1308,876 53.9,72.1 99.1,151.8 131.7,236.2 660.5,-162 1852.6,-627.2 2792.5,-973.9 -292.2,-20.5 -576.3,-80.4 -804.1,-206.7 -206.5,-114.4 -350.7,-264.8 -490,-410.3 -44.5,-46.4 -88.4,-92.2 -134.1,-137"
         style="fill:#9c1b30;fill-opacity:1;fill-rule:nonzero;stroke:none"
         id="path18" />
      <path
         d="m 27932.2,13983.3 c 89,149.2 135.8,351.7 30.3,667.9 -112.4,337.1 -395.5,686.2 -676.1,980.5 0.3,1.1 0.7,2.3 1.1,3.4 24.9,75.1 41.8,149.2 54.8,223.2 2.2,13.1 4.3,25.9 6.3,38.7 69.8,-8.1 138.7,-14 209.4,-18.8 0.2,0 0.4,0 0.5,0 578.1,-390.6 1323.2,-934.8 1980.3,-1375.3 -451.6,-18.4 -923.8,-50.3 -1606.6,-519.6"
         style="fill:#9c1b30;fill-opacity:1;fill-rule:nonzero;stroke:none"
         id="path20" />
      <path
         d="m 33744.9,15480.3 0.3,-0.5 -0.3,0.5 m -13191.1,6237.9 5359.9,-8368 c 363.9,65.9 1532.5,296.9 2007.3,625.4 709.7,491.1 1192.2,510.3 1658.8,528.9 251.5,10.1 489,19.5 761.6,106.1 435,138.2 634.8,346.7 846.4,567.5 139.3,145.5 283.5,295.9 490,410.3 533.3,295.7 1375.4,227.5 1906.4,141.7 l -1003.7,1560.4 -12026.7,4427.7 m 5193.8,-8742.4 -6030.1,9414.4 13088.5,-4818.5 1226.6,-1907 v 0 c 46.7,-72.6 45.3,-165.3 -3.6,-236.4 -48.8,-70.9 -134.9,-105.2 -219.2,-87.6 -656.6,138.3 -1518,197.4 -1966.4,-51.2 -161.2,-89.3 -275.9,-209.1 -408.8,-347.8 -221.1,-230.8 -471.7,-492.3 -989.8,-656.8 -316.4,-100.5 -588.4,-111.4 -851.4,-121.9 -437,-17.4 -849.9,-33.8 -1477.9,-468.4 -626.5,-433.5 -2190.9,-690.2 -2257.2,-701 l -110.7,-17.8"
         style="fill:#371a45;fill-opacity:1;fill-rule:nonzero;stroke:none"
         id="path22" />
      <path
         d="m 21770.7,21172.3 c 0,0 6801.6,-2291 12173.9,-5686.6 0,0 862.7,1462.9 -427,2706.5 0,0 -2464.3,253.3 -5953.5,1653.5 -3387.8,1359.6 -6021.4,2911.5 -6021.4,2911.5 l 228,-1584.9"
         style="fill:#f91c1c;fill-opacity:1;fill-rule:nonzero;stroke:none"
         id="path24" />
      <path
         d="m 34050.5,16458 c -142.8,726.9 -722.6,1331.6 -1498.5,1475 -1004.9,185.7 -2843.5,611.1 -5117.6,1523.8 -766.7,307.7 -1494.8,625.4 -2162.5,932.6 -107.2,72.6 -215.1,144.5 -323.5,215.6 -210.3,137.8 -422.4,273.1 -637.9,404 -215.1,131.4 -434.6,255.9 -654.6,381.4 -184.2,105.2 -370.5,210.1 -568.1,294.1 11,6.3 21.9,12.8 32.8,19.4 1094.9,-567.1 2643.4,-1319.9 4379.9,-2016.8 3172.2,-1272.9 5536,-1607.5 5938.9,-1657.7 532.8,-536.1 643.6,-1111.6 611.1,-1571.4"
         style="fill:#fb6b6b;fill-opacity:1;fill-rule:nonzero;stroke:none"
         id="path26" />
      <path
         d="m 21925,21300 c 854.5,-296.3 7000.9,-2477.2 11949.2,-5568.3 165.8,390.4 458.1,1399.3 -434.8,2297.7 -402.9,50.2 -2766.7,384.8 -5938.9,1657.7 -2700.6,1083.8 -4946.7,2302.9 -5738.8,2748.3 L 21925,21300 m 12004.4,-5967.7 c -40,0 -79.6,11.2 -114,32.9 -5286.7,3332.2 -12031.7,5622.4 -12099.2,5645.2 l -99.6,33.6 -293.7,2041 306.6,-180.6 c 26.2,-15.4 2662.4,-1561.4 5998.3,-2900.1 3423.2,-1373.7 5882.9,-1639.6 5907.3,-1642.1 l 58.6,-6.1 42.5,-40.9 c 1249.2,-1204.6 620.5,-2600.6 481.8,-2868.2 -27.4,-52.7 -75.9,-91.8 -133.1,-107.4 -18.2,-4.9 -36.9,-7.3 -55.5,-7.3"
         style="fill:#371a45;fill-opacity:1;fill-rule:nonzero;stroke:none"
         id="path28" />
      <path
         d="m 17404,15158.9 c 360.5,-1358.4 729.5,-1998.9 729.5,-1998.9 0,0 597.3,-1307.1 1874.6,-1954.6 821.5,-416.4 1868.9,-331 1868.9,-331 0,0 535.4,-1701.9 1249.1,-2046.6 713.7,-344.7 1911.4,131.9 1719.2,1379.7 -127.8,830.4 -650.4,2067.1 -998.3,2468.1 -435.3,501.8 -2230,2571.4 -2445.5,3374.1 L 17404,15158.9"
         style="fill:#ffffff;fill-opacity:1;fill-rule:nonzero;stroke:none"
         id="path30" />
      <path
         d="m 23624.5,8889.7 c -149.5,0 -295.9,30.1 -424.1,92 -530.2,256 -1017.4,1490.1 -1160.4,1944 l -41,130.1 -135.9,-11.1 c -2.8,-0.2 -85,-6.5 -218.8,-6.5 -338.4,0 -1007.4,40.1 -1558.9,319.7 -1206.2,611.4 -1790.8,1860.7 -1796.5,1873.1 l -7.2,14.1 c -0.7,1.1 -12.2,21.4 -32.6,61.3 776,-399.4 1529.2,-527.8 2177.3,-527.8 864.5,0.1 1541.7,228.6 1834.3,347 202,-373.1 806.5,-1343.4 1876.5,-1885.8 96.3,-48.8 195.2,-91.1 295,-127.7 111.4,-321.8 200.8,-648.2 244.2,-930.6 70.7,-458.8 -65.2,-840.8 -382.7,-1075.6 -191.9,-142 -434.4,-216.2 -669.2,-216.2"
         style="fill:#b9afbe;fill-opacity:1;fill-rule:nonzero;stroke:none"
         id="path32" />
      <path
         d="m 23626.2,8547.1 c -200.3,0 -397.9,41.6 -574.4,126.8 -665.5,321.4 -1149.3,1594.1 -1296.4,2023.5 -319.3,-8.5 -1138.2,7.7 -1824.6,355.6 -1280.2,649 -1894,1910.4 -1949.4,2028.8 -43.8,78.1 -396.3,728.4 -742.6,2033.3 -24.2,91.2 30.2,184.8 121.4,209 91,24.3 184.7,-30.1 208.9,-121.3 349,-1315.1 709,-1951.4 712.6,-1957.7 l 7.2,-14.1 c 5.7,-12.4 590.3,-1261.7 1796.5,-1873.1 769.6,-390.1 1767.7,-313.9 1777.7,-313.2 l 135.9,11.1 41,-130.1 c 143,-453.9 630.2,-1688 1160.4,-1944 329.6,-159.2 779.2,-108.1 1093.3,124.2 317.5,234.8 453.4,616.8 382.7,1075.6 -126.4,821.7 -641.3,2016.6 -958.5,2382.1 -1496.7,1725.4 -2331.5,2883.4 -2481.4,3441.8 -24.5,91.1 29.6,184.9 120.7,209.3 91.3,24.5 184.9,-29.6 209.4,-120.7 76.7,-286 491.8,-1095.7 2409.5,-3306.4 388.4,-447.7 912.3,-1736.7 1038.1,-2554.1 122.7,-796.6 -271.4,-1220.6 -517.3,-1402.4 -252.8,-187 -564.9,-284 -870.7,-284"
         style="fill:#371a45;fill-opacity:1;fill-rule:nonzero;stroke:none"
         id="path34" />
      <path
         d="m 17578.7,21596.1 -8086.3,7821.5 c 0,0 -1166.05,1599.8 -2654.34,428.2 -1460.75,-1150 -661.34,-2306.9 -148.42,-2850.8 l 7575.16,-6156.7 c 0,0 606.3,-5335.3 3802.3,-7235.8 2171.9,-1291.5 4272.8,-255.7 4272.8,-255.7 0,0 597.3,-1307.1 1874.6,-1954.6 821.6,-416.4 1868.9,-331.1 1868.9,-331.1 0,0 535.4,-1701.8 1249.1,-2046.5 713.7,-344.7 1911.4,131.8 1719.3,1379.7 -127.9,830.4 -650.5,2067.1 -998.4,2468.1 -435.3,501.7 -2230,2571.3 -2445.5,3374.1 -1165.8,4343.5 -4404.6,6275.3 -4404.6,6275.3 l -3624.6,-915.7"
         style="fill:#ffffff;fill-opacity:1;fill-rule:nonzero;stroke:none"
         id="path36" />
      <path
         d="m 29072.3,10144.7 c 6.8,-1060.7 -1076.1,-1450.8 -1740,-1129.9 -713.4,344.3 -1249.1,2046.2 -1249.1,2046.2 0,0 -1047.1,-85.4 -1868.5,331.1 -1277.4,647.6 -1874.6,1954.4 -1874.6,1954.4 0,0 -2101,-1035.5 -4272.8,255.9 -32.5,19.3 -65,39.3 -97,59.4 -2083,1305.1 -3037.4,4078.5 -3441.1,5769.3 -199.5,835.6 -264.4,1407.2 -264.4,1407.2 l -1131.7,919.8 -1094.9,889.8 -5348.5,4347.2 c -7.27,7.7 -14.53,15.4 -21.79,23.5 -513.49,552.8 -1270.05,1693.4 170.02,2827.2 1488.36,1171.8 2654.61,-428.1 2654.61,-428.1 l 2705.46,-2617 5380.6,-5204.5 3624.7,915.5 c 0,0 412.3,-246.1 995.4,-759.6 181.1,-159.4 378.9,-344.8 585.7,-556.7 818.5,-837.3 1781.8,-2088.9 2443.1,-3794.7 141.9,-367 270.5,-754.9 380.2,-1164.2 215.8,-802.7 2010.4,-2872.4 2445.8,-3374 347.7,-401.1 870.6,-1637.8 998.3,-2468.3 13.7,-86.8 20.1,-170 20.5,-249.5"
         style="fill:#ffffff;fill-opacity:1;fill-rule:nonzero;stroke:none"
         id="path38" />
      <path
         d="m 27830.9,9076.4 c -149.5,0 -295.9,30.1 -424.1,92 -530.2,256.1 -1017.4,1490.2 -1160.4,1944.1 l -41.1,129.8 -135.7,-10.8 c -2.8,-0.3 -83.8,-6.3 -215.8,-6.3 -338,0 -1010.4,39.8 -1562,319.4 -1206.2,611.4 -1790.8,1860.8 -1796.5,1873.2 l -73.1,159.5 -157.6,-77.2 c -12.4,-6.1 -778.4,-371.6 -1844.4,-371.6 -568.2,0 -1221.5,103.8 -1891.4,421.3 332.3,-54.8 699.5,-93.4 1074.2,-93.4 375.8,0 759.1,38.8 1122.7,139.2 1479.8,408 1600.7,886.6 2083.7,886.6 42.9,0 88.7,-3.8 138.6,-11.7 611.3,-97 38,-1314.1 1410.2,-2271 545,-380.2 1087.1,-490.3 1566.2,-490.3 329.4,0 629,52 879.4,104 250.5,52.1 451.7,104.1 584.3,104.1 65.4,0 114.1,-12.6 143.7,-44.2 238,-252.4 -730.9,-682.6 -624.9,-1611.4 52.8,-462.2 612.2,-801.9 1160.6,-802 286.8,0 570.5,92.9 777.4,309.7 -63.3,-192.2 -179.4,-354.5 -344.8,-476.8 -191.9,-141.9 -434.4,-216.2 -669.2,-216.2"
         style="fill:#b9afbe;fill-opacity:1;fill-rule:nonzero;stroke:none"
         id="path40" />
      <path
         d="m 11561.8,23255.3 -4725.36,3840.6 c 79.02,-25.7 165.4,-41.9 257.84,-41.9 39.41,0 79.89,3 121.39,9.4 389.59,59.9 848.32,280.9 1211.63,565.1 403.72,-1021.2 1086.46,-2333.3 2015.8,-2660.9 117.5,-41.4 225.7,-60.2 325,-60.2 174.9,0 322.6,58.3 447.2,153.6 5.9,-163.7 22,-325.7 51.3,-480.8 44.8,-404.1 129.8,-807.3 255.6,-1204.2 v 0 0 0 c 5,-15.7 10,-31.4 15.1,-47.1 8.1,-24.6 16.2,-49.1 24.5,-73.6"
         style="fill:#b9afbe;fill-opacity:1;fill-rule:nonzero;stroke:none"
         id="path42" />
      <path
         d="m 26205.3,11242.3 41.1,-129.8 c 143,-453.9 630.2,-1688 1160.4,-1944.1 329.6,-159.2 779.2,-108.1 1093.3,124.2 317.5,234.8 453.4,616.8 382.8,1075.7 -126.5,821.7 -641.4,2016.5 -958.6,2382.1 -1496.6,1725.1 -2331.4,2883.1 -2481.4,3441.8 -1047.7,3903.3 -3830.9,5850 -4269,6135.9 l -3645.6,-921 -8165.28,7898 -8.69,11.9 c -4.79,6.5 -504.01,676.3 -1226.89,774.7 -396.33,54.1 -794.64,-73.9 -1183.68,-380.2 -476.35,-375 -733.65,-778.3 -764.78,-1198.6 -40.91,-552.8 316.63,-1061 627.32,-1392.5 l 7620.4,-6193.5 7.9,-69.3 c 6,-52.5 634.7,-5273.7 3719.8,-7108.2 2062.6,-1226.4 4089.9,-259.2 4110.2,-249.3 l 157.6,77.2 73.1,-159.5 c 5.7,-12.4 590.3,-1261.8 1796.5,-1873.2 767.1,-388.8 1767.8,-313.9 1777.8,-313.1 l 135.7,10.8 m 1627.3,-2508.5 c -200.3,0 -397.9,41.6 -574.4,126.9 -665.5,321.4 -1149.3,1594.1 -1296.4,2023.5 -319.1,-8.9 -1138.2,7.7 -1824.6,355.6 -1070,542.4 -1674.5,1512.7 -1876.5,1885.8 -537.3,-217.4 -2370.3,-806.1 -4280.9,330 -1695.1,1008 -2661.4,2960.5 -3173.6,4421 -486.4,1386.9 -663.3,2574.6 -702.5,2872.4 l -7530.63,6120.6 -7.76,8.2 c -515.62,546.8 -767.09,1120.9 -727.14,1660.3 38.49,520 339.35,1005.1 894.21,1441.9 465.5,366.5 951.39,517.7 1444.02,450 817.45,-112.7 1364.23,-793.4 1444.6,-899 l 8008.1,-7745.9 3601,909.7 60.7,-36.2 c 34,-20.2 841.7,-507.3 1802.7,-1539.2 884.9,-950.2 2068.1,-2561 2679.5,-4838.7 76.7,-286 491.9,-1096 2409.5,-3306.3 388.4,-447.7 912.3,-1736.7 1038.2,-2554.1 122.6,-796.7 -271.5,-1220.6 -517.4,-1402.5 -252.8,-186.9 -564.9,-284 -870.7,-284"
         style="fill:#371a45;fill-opacity:1;fill-rule:nonzero;stroke:none"
         id="path44" />
      <path
         d="m 21453.2,15386 c 5.2,-413.5 -210.1,-805.3 -557.5,-942.8 -870.2,-345.2 -2333.3,-744.6 -3902.8,-393.1 -364.9,81.6 -695.1,309.8 -934.7,651.9 -290.1,414.4 -677.6,1094.1 -987.7,2086.9 -112.8,361.4 127.7,741.2 446,707 788.2,-85.4 2250.4,-75.6 4252.7,648.9 389.2,141 804,-91.8 964.2,-543.4 l 403.3,-1135.5 251.2,-707.8 c 43.1,-121.8 64.5,-247.8 65.3,-372.1"
         style="fill:#ffffff;fill-opacity:1;fill-rule:nonzero;stroke:none"
         id="path46" />
      <path
         d="m 18257.1,14083.5 c -395.5,0 -807.5,39.4 -1227,133.4 -263.8,59.1 -508.7,207.4 -705.3,424.5 29,-8.5 58.4,-16.1 87.9,-22.7 430.8,-96.4 853.8,-136.4 1258.5,-136.4 1070.1,0 2013.4,279 2644.8,529.5 150,59.3 275.1,166.1 369.1,301.1 -44.3,11.5 -87.2,30.2 -127.5,55.2 70.3,-43.6 148.7,-68 228.8,-68 12.7,0 25.5,0.6 38.3,1.9 151.3,14.9 304.2,34.1 458.1,57.1 -4.6,-335.2 -176.5,-648.9 -449.9,-757.3 -654.2,-259.4 -1561.2,-518.3 -2575.8,-518.3 m 2299.2,1285.4 c 0,0 -0.1,0.1 -0.2,0.1 0.1,0 0.2,-0.1 0.2,-0.1 m -150.8,141.8 c -0.1,0.1 -0.2,0.3 -0.2,0.4 0,-0.2 0.1,-0.3 0.2,-0.4 m -1.3,1.8 c -0.1,0.2 -0.3,0.4 -0.5,0.7 0.2,-0.3 0.4,-0.5 0.5,-0.7 m -1,1.3 c -0.4,0.6 -0.8,1.2 -1.2,1.7 0.4,-0.5 0.8,-1.1 1.2,-1.7 m -1.2,1.8 c -19.6,27.3 -37.1,56.7 -52.3,87.9 15.2,-31.2 32.7,-60.6 52.3,-87.9 m -52.9,89.3 c -0.1,0.2 -0.2,0.4 -0.3,0.6 0.1,-0.2 0.2,-0.4 0.3,-0.6 m 231,1364.2 -351.8,990.6 c 154.2,-76.8 276.2,-223.8 344.2,-415.3 l 193.5,-545.1 c -33.4,-4.6 -66.8,-8.9 -100.2,-13 -29.3,-3.5 -57.9,-9.3 -85.7,-17.2"
         style="fill:#b9afbe;fill-opacity:1;fill-rule:nonzero;stroke:none"
         id="path48" />
      <path
         d="m 15476.6,17327.1 c -85.5,0 -145.5,-56.6 -174.8,-92.2 -84.3,-102.6 -111,-257.7 -68.1,-395.2 308.2,-987.1 694.6,-1653.9 964.5,-2039.5 212.5,-303.6 508,-510.8 831.9,-583.3 1495.9,-335.1 2893.6,24.4 3802.8,384.9 366.2,145.2 550.4,658.8 394.1,1098.9 l -654.5,1843.7 c -69.6,195.9 -195.6,345.3 -354.8,420.5 -125.9,59.4 -260.8,66 -390.2,19.2 -1980.8,-716.8 -3447.8,-753.4 -4329.6,-658.1 -7.3,0.8 -14.4,1.1 -21.3,1.1 m 2780.2,-3585.3 c -418.9,0 -855.7,41.7 -1301.4,141.6 -407.3,91.2 -775.7,347.2 -1037.2,720.8 -283.7,405.5 -689.5,1104.7 -1010.7,2133.7 -77.5,248.2 -27.6,521.8 130.3,713.9 128.4,156.2 309.6,234 496.9,214 845.9,-91.6 2257.3,-54.9 4176.5,639.7 213.7,77.4 445.4,66.1 652.4,-31.6 242.1,-114.4 430.7,-332.8 530.9,-615.2 l 654.6,-1843.6 c 218.7,-616.3 -51.5,-1317.4 -590.2,-1531 -684.9,-271.6 -1635.5,-542.3 -2702.1,-542.3"
         style="fill:#371a45;fill-opacity:1;fill-rule:nonzero;stroke:none"
         id="path50" />
      <path
         d="m 20557.6,15368.1 c -0.4,0.2 -0.9,0.5 -1.3,0.8 0.4,-0.3 0.9,-0.6 1.3,-0.8 m -1.5,0.9 c -56.8,35.6 -108.2,83.7 -150.6,141.7 42.4,-58 93.8,-106.1 150.6,-141.7 m -150.8,142.1 c -0.4,0.4 -0.7,0.9 -1.1,1.4 0.4,-0.5 0.7,-1 1.1,-1.4 m -1.6,2.1 c -0.1,0.2 -0.3,0.4 -0.5,0.6 0.2,-0.2 0.4,-0.4 0.5,-0.6 m -1.7,2.3 c 0,0.1 0,0.1 0,0.1 0,0 0,0 0,-0.1 m -52.3,88 c -0.2,0.5 -0.4,1 -0.6,1.4 0.2,-0.4 0.4,-0.9 0.6,-1.4 m -0.9,2 c -12.8,26.6 -24,54.5 -33.2,83.6 l -11.5,36.5 c -17.6,55.3 -27,110.7 -29.1,164.5 v -0.1 c 2.2,-53.8 11.6,-109.1 29.1,-164.4 l 11.5,-36.3 c 9.2,-29.2 20.4,-57.2 33.2,-83.8"
         style="fill:#b9afbe;fill-opacity:1;fill-rule:nonzero;stroke:none"
         id="path52" />
      <path
         d="m 20786.4,15300.1 c -80.1,0 -158.5,24.4 -228.8,68 -0.4,0.2 -0.9,0.5 -1.3,0.8 0,0 -0.1,0.1 -0.2,0.1 -56.8,35.6 -108.2,83.7 -150.6,141.7 -0.1,0.1 -0.2,0.2 -0.2,0.4 -0.4,0.4 -0.7,0.9 -1.1,1.4 -0.1,0.2 -0.3,0.4 -0.5,0.7 -0.1,0.2 -0.3,0.4 -0.5,0.6 -0.4,0.6 -0.8,1.2 -1.2,1.7 0,0.1 0,0.1 0,0.1 -19.6,27.3 -37.1,56.7 -52.3,87.9 -0.2,0.5 -0.4,1 -0.6,1.4 -0.1,0.2 -0.2,0.4 -0.3,0.6 -12.8,26.6 -24,54.6 -33.2,83.8 l -11.5,36.3 c -17.5,55.3 -26.9,110.6 -29.1,164.4 125.2,-204.2 334.8,-333.6 554.6,-333.6 18.1,0 36.4,0.9 54.6,2.7 122.8,12.1 246.8,27 371.6,44.5 19.4,-81 28.1,-163.4 27,-244.5 -153.9,-23 -306.8,-42.2 -458.1,-57.1 -12.8,-1.3 -25.6,-1.9 -38.3,-1.9"
         style="fill:#8c7b94;fill-opacity:1;fill-rule:nonzero;stroke:none"
         id="path54" />
      <path
         d="m 25625.3,16784.6 c -10.9,34.2 -21.8,68.1 -33,101.9 5.4,3.1 10.6,6.2 15.8,9.5 14.9,-14.6 29.6,-29.4 44,-44.4 -7.4,-23.2 -16.4,-45.6 -26.8,-67"
         style="fill:#9c1b30;fill-opacity:1;fill-rule:nonzero;stroke:none"
         id="path56" />
      <path
         d="m 21624.4,15415.7 c -2.6,80.1 -12.5,160.9 -30.1,241 1428.6,247.2 2892.5,780.2 3682.4,1095.7 21.5,-66 42.6,-133 63,-200.2 -746.1,-305.5 -2240.8,-868.6 -3715.3,-1136.5"
         style="fill:#b9afbe;fill-opacity:1;fill-rule:nonzero;stroke:none"
         id="path58" />
      <path
         d="m 25339.7,16552.2 c -20.4,67.2 -41.5,134.2 -63,200.2 93.2,37.2 177,71.4 250.2,101.7 22.8,9.4 44.6,20.3 65.4,32.4 11.2,-33.8 22.1,-67.7 33,-101.9 -44,-89.9 -114.6,-161.7 -206.5,-199.8 -25.3,-10.5 -51.7,-21.4 -79.1,-32.6"
         style="fill:#371a45;fill-opacity:1;fill-rule:nonzero;stroke:none"
         id="path60" />
      <path
         d="m 21282.8,15359.1 c 1.1,81.1 -7.6,163.5 -27,244.5 112.3,15.8 225.3,33.6 338.5,53.1 17.6,-80.1 27.5,-160.9 30.1,-241 -114.1,-20.7 -228.1,-39.7 -341.6,-56.6"
         style="fill:#371a45;fill-opacity:1;fill-rule:nonzero;stroke:none"
         id="path62" />
      <path
         d="m 24956.3,18248.3 c -783.7,-395.7 -2585.5,-1226.2 -4269.7,-1431.6 -277.6,-33.8 -439.5,-349.3 -339.8,-663.9 l 11.5,-36.5 c 77.8,-245.4 291.8,-408.5 509.2,-387.1 1757.1,173 3752.7,934.3 4594,1282.8 225.3,93.3 322.2,389.7 214.8,657 l -115.3,287.3 c -108.8,271 -383.5,403.8 -604.7,292"
         style="fill:#ffffff;fill-opacity:1;fill-rule:nonzero;stroke:none"
         id="path64" />
      <path
         d="m 25033.3,18095.8 c -723.2,-365.2 -2592.5,-1237.3 -4326.1,-1448.7 -85.1,-10.4 -136.6,-65 -164.9,-108.9 -58,-90.3 -70.2,-215.1 -32.6,-333.8 l 11.5,-36.5 c 52.8,-166.4 194,-282.1 329.5,-268.7 1749.6,172.3 3761.6,946 4545.4,1270.7 137.8,57 193.5,256.5 121.7,435.5 l -115.4,287.2 c -40.3,100.5 -112.6,176.6 -198.4,209 -41.5,15.7 -104.9,27.4 -170.7,-5.8 m -4203.7,-2539.4 c -277.3,0 -538.4,205.9 -634.2,508.3 l -11.5,36.5 c -68,214.5 -41.4,447 70.9,621.8 95.9,149.2 241.9,242.7 411,263.3 1680.1,204.9 3506.3,1057.5 4213.5,1414.6 137.7,69.5 295.9,76.8 445.4,20.5 175,-66.1 319,-212.4 394.9,-401.4 l 115.3,-287.3 c 142.6,-355.1 4.4,-749.2 -308,-878.6 -797.9,-330.5 -2847.6,-1118.2 -4642.7,-1295 -18.2,-1.8 -36.5,-2.7 -54.6,-2.7"
         style="fill:#371a45;fill-opacity:1;fill-rule:nonzero;stroke:none"
         id="path66" />
      <path
         d="m 20829.2,15898.2 c -128.7,0 -258,112.1 -308,269.7 l -11.5,36.5 c -13.2,41.5 -20.2,83.8 -21.4,125.1 54.8,-24.7 113.2,-38.2 172.4,-38.2 12.8,0 25.6,0.7 38.4,1.9 1516,149.1 3209.3,736.5 4185.9,1118.5 145.9,-87 288.6,-178.9 427.4,-276.3 -836.1,-341.9 -2771.4,-1069.8 -4461.7,-1236.2 -7.1,-0.7 -14.3,-1 -21.5,-1"
         style="fill:#b9afbe;fill-opacity:1;fill-rule:nonzero;stroke:none"
         id="path68" />
      <path
         d="m 20829.4,15727.2 c -203.8,0 -397.7,158.4 -471.1,389.3 l -11.5,36.6 c -31.8,100.5 -37.3,201.8 -20.1,293.4 47.4,-50.4 102.4,-90.3 161.6,-117 1.2,-41.3 8.2,-83.6 21.4,-125.1 l 11.5,-36.5 c 50,-157.6 179.3,-269.7 308,-269.7 7.2,0 14.4,0.3 21.5,1 1690.3,166.4 3625.6,894.3 4461.7,1236.2 25.8,-18.1 51.5,-36.4 77.1,-54.9 28.3,-20.6 56.1,-41.9 83.2,-63.9 -3.6,-1.7 -7.3,-3.3 -11,-4.8 -841.3,-348.1 -2837.1,-1109.3 -4594.2,-1282.7 -12.8,-1.3 -25.4,-1.9 -38.1,-1.9"
         style="fill:#371a45;fill-opacity:1;fill-rule:nonzero;stroke:none"
         id="path70" />
      <path
         d="m 6331.61,27443.7 c 0,0 364.7,-460.3 884.06,-380.3 863.29,132.8 2065.71,1056.3 1818.41,1706.3 -205.28,539.6 -794.35,540.6 -585.65,962 l -2116.82,-2288"
         style="fill:#ffffff;fill-opacity:1;fill-rule:nonzero;stroke:none"
         id="path72" />
      <path
         d="m 6645.95,27181.6 c -48.86,28.3 -92.86,58.6 -131.36,88.3 38.5,-29.7 82.51,-60 131.36,-88.3"
         style="fill:#371a45;fill-opacity:1;fill-rule:nonzero;stroke:none"
         id="path74" />
      <path
         d="m 8867.15,28071.7 c 171.53,236.9 248.92,482.5 166.93,698 -21.31,56 -46.74,106.2 -75,151.7 28.28,-45.5 53.75,-95.7 75.08,-151.7 82.02,-215.5 4.6,-461.1 -167.01,-698 m -595.82,1468.5 c -0.05,0.1 -0.09,0.1 -0.14,0.1 l 177.28,191.4 c -8.3,-16.7 -15.33,-32.8 -21.19,-48.3 5.85,15.5 12.87,31.5 21.15,48.3 l -177.1,-191.5 m 155.68,142.5 c 0.04,0.1 0.08,0.2 0.12,0.3 -0.05,-0.1 -0.07,-0.2 -0.12,-0.3"
         style="fill:#b9afbe;fill-opacity:1;fill-rule:nonzero;stroke:none"
         id="path76" />
      <path
         d="m 7094.16,27054.1 c -173.78,0 -326.2,57.1 -448.21,127.5 -48.85,28.3 -92.86,58.6 -131.36,88.3 -116.52,89.9 -182.88,173.7 -182.88,173.7 l 0.85,0.9 c 109.31,-53.6 238.38,-92.6 382.01,-92.6 39.36,0 79.79,3 121.23,9.3 863.36,132.9 2065.93,1056 1818.59,1706.2 -87.98,231.5 -246.82,363.9 -383.06,472.8 l 177.1,191.5 c -8.28,-16.8 -15.3,-32.8 -21.15,-48.3 -0.04,-0.1 -0.11,-0.3 -0.15,-0.4 -0.04,-0.1 -0.08,-0.2 -0.12,-0.3 -125.32,-333.1 298.94,-386.4 532.07,-761.3 28.26,-45.5 53.69,-95.7 75,-151.7 81.99,-215.5 4.6,-461.1 -166.93,-698 -345.9,-477.4 -1074.5,-919.5 -1651.57,-1008.3 -41.48,-6.3 -82.03,-9.3 -121.42,-9.3"
         style="fill:#b9afbe;fill-opacity:1;fill-rule:nonzero;stroke:none"
         id="path78" />
      <path
         d="m 6465.53,27549.8 17.92,-20.3 c 6.96,-7.9 14.5,-15.7 22.26,-23.5 14.99,-15.8 31.62,-31 47.93,-46 33.23,-29.6 67.99,-57.9 104.34,-82.9 72.34,-50.9 149.83,-91.3 229.25,-117.2 79.47,-25.9 160.62,-37 241.24,-33.2 l 60.42,5.5 68.09,12.2 c 45.56,9.8 91.21,20.3 136.75,33.6 182.32,52.1 361.74,130.3 532.1,224.2 170.29,94.3 333.06,204.4 479.93,329.7 146.24,124.7 281.42,264.6 372.71,419.4 45.63,76.7 79.15,156.8 95.43,232.5 16.55,76.3 12.94,144.6 -5.88,206.5 -3.03,14.1 -12.4,35.6 -19.12,54.3 -8.67,18.4 -16.28,37.5 -26.32,55.3 -18.89,36.3 -39.23,72.2 -64.67,106.3 -49.54,68.9 -111.99,133.7 -183.3,204.3 -35.47,35.6 -74.88,70.5 -113.31,113.2 -38.08,42.9 -80.59,88.1 -112.15,152.5 -16.36,30.8 -28.3,67.6 -35.31,104 -5.69,37.4 -4.78,75.2 1.93,109.4 12.97,69.4 46.41,122.4 81.62,167.3 19.77,25.3 56.3,29.7 81.57,10 17.79,-14 25.26,-36.2 21.24,-56.9 l -0.74,-3.6 c -9.27,-47.3 -13.18,-92.9 -5.05,-126.8 8.18,-34.3 23.22,-55.3 47.29,-78.8 48.29,-47.2 135.03,-96.5 222.46,-155.4 89.09,-58 181.81,-130.4 262.04,-221.6 39.99,-45.4 77.24,-95.3 108.64,-148.8 16.23,-26.4 29.66,-54.4 43.75,-82.1 12.23,-29.1 25.71,-54 35.72,-89.8 44.77,-134 42.57,-279.4 9.27,-402.6 -32.59,-124.5 -87.91,-232.8 -150,-331.1 -125.78,-195.9 -280.22,-356 -446.43,-497.9 -166.51,-141.8 -346.53,-263.4 -536.21,-368.5 -189.94,-104.6 -390.06,-192.5 -603.66,-253.7 -53.27,-15.5 -107.89,-28.3 -162.96,-40 l -83.87,-15 -93.26,-8.8 c -124.88,-6.4 -250.58,11.6 -366.6,49.8 -116.31,37.9 -222.83,94.6 -318.82,161.9 -48.32,33.5 -93.61,70.2 -137.09,109.1 -21.58,19.8 -42.89,39.4 -63.43,60.9 -10.32,10.4 -20.62,21.1 -30.81,32.5 -10.74,11.7 -19.23,21.3 -32.76,37.8 -59.69,73 -48.9,180.6 24.07,240.3 71.29,58.3 175.54,49.3 235.96,-19.1 l 7.82,-8.9"
         style="fill:#371a45;fill-opacity:1;fill-rule:nonzero;stroke:none"
         id="path80" />
      <path
         d="m 9991.92,28588.8 c -499.51,828.8 -1069.06,876.5 -1737.76,498.5 -487.84,-275.8 -736.4,-760.3 -577.35,-1043.1 191.16,-339.8 1129.24,224.3 1159.5,197.4 30.26,-26.9 -205.71,-487.1 -80.86,-889.9"
         style="fill:#ffffff;fill-opacity:1;fill-rule:nonzero;stroke:none"
         id="path82" />
      <path
         d="m 9967.53,28574.1 c -44.61,39.7 -86.28,80 -126.32,120.6 l -63.7,56.9 c -20.7,19 -40.08,39 -61.45,56.7 -86.1,69.7 -168.31,139.2 -257.42,188.6 -42.36,29 -88.79,46.2 -131.76,68.8 -45.73,15 -88.87,35.4 -134.86,43.2 -89.85,23.2 -181.94,27.9 -276.27,16.8 -46.66,-2.5 -94.88,-14.7 -142.53,-23.2 -47.8,-14.8 -96.34,-24.1 -144.56,-43.5 -96.82,-31.9 -193.41,-78.6 -288.74,-127.2 -178.96,-97.1 -340.75,-236.5 -440.95,-403.7 -50.63,-82.1 -82.95,-171.8 -91.13,-251 -1.79,-38.6 -1.08,-75.7 9.96,-103.7 2.44,-15.9 12.35,-26.3 16.79,-39.9 2.81,-3.5 2.81,-1.9 4.52,-3 2.78,-1.5 26,-9.8 63.4,-9.3 36.7,-0.3 82.3,5.7 129.35,16 95.22,20 196.66,55 298.51,92.9 102.47,38.3 203.98,82.2 311.89,126.1 27.54,11.3 54.08,22.5 87.55,35 8.79,3.2 17.7,6.5 30.57,10.6 l 10.42,3.1 15.48,3.9 c 6.01,1.5 18.36,3.6 27.32,4.5 11.91,1.1 24.73,1.1 36.99,-0.1 2.05,-0.2 13.84,-0.7 38.08,-8.1 19.63,-6.5 38.75,-17 54.27,-29.3 14.87,-12.1 17.17,-15.8 25.74,-25.6 6.95,-8.5 13.33,-17.9 18.75,-27.7 10.79,-18.1 18.48,-46.3 18.11,-47.7 3.03,-14.6 4.59,-30 4.57,-44.5 l -1.32,-19.2 c -0.64,-6.6 -1.56,-13.1 -2.2,-15.7 -2.98,-16.3 -5.93,-26.4 -8.76,-36.6 -11.16,-36.2 -21.05,-62.2 -31.23,-89.5 l -30.03,-78.1 c -77.73,-204.4 -146.36,-398.7 -153.93,-631 l -0.02,-1 c -0.54,-16.4 -14.31,-29.3 -30.79,-28.8 -9.76,0.3 -18.38,5.4 -23.58,12.9 -71.63,103.9 -106.4,232.5 -118.14,358.8 -11.14,126.8 1.02,253.8 23.75,373.7 l 35.35,164.6 c 0.47,3.9 0.83,7.8 0.05,5.8 0.12,0.9 -0.51,-2 -0.9,-5 -0.34,-2.8 -0.49,-5.6 -0.44,-8.4 -0.37,-10.9 0.81,-22.8 3.49,-33.8 l 4.18,-15 c 3,-9.3 7.03,-18.7 12.01,-27.7 4.98,-9.1 10.91,-17.6 17.43,-25.4 8.06,-9 10.2,-11.6 24.24,-23.5 14.68,-11.9 32.96,-22 51.76,-28.2 23.44,-7 34.35,-7.2 35.47,-7.6 10.45,-1.2 21.49,-1.2 31.6,-0.1 5.42,0.3 14.18,2 16.69,2.5 l 5.03,1.1 0.15,-0.2 -9.89,-4.7 -70.63,-35 c -101.49,-52.7 -209.64,-105.1 -321.7,-151.7 -112.48,-46.7 -229.91,-87.5 -360.67,-114.6 -65.84,-12.6 -135.3,-21.9 -214.01,-19.7 -77.05,3.1 -172.27,17.5 -264.97,82.5 -45.12,32.4 -84.69,77.9 -109.81,124.9 -17.78,39.5 -38.14,79.3 -46.34,120.5 -23.63,82.6 -22.02,163.3 -14.38,238.9 20.14,150.3 78.83,278.3 148.41,392.2 143.7,225.6 339.33,399.4 558.81,532.4 107.48,60.6 216,121.4 337.33,165.3 58.65,24.6 122.76,41.4 185.75,58.5 32.2,7.3 65.57,12.3 98.34,18.3 16.55,2.6 32.71,6.3 49.58,7.8 l 51.05,2.9 c 67.51,6.2 136.94,0.9 205.54,-5 68.22,-13.4 136.79,-24.9 201.25,-50.5 32.74,-11 65.18,-22.7 94.94,-39.5 30.18,-15.8 60.97,-30.5 89.87,-47.9 54.71,-38.5 111.28,-74.6 156.94,-120.9 97.99,-86.3 171.85,-189.2 236.25,-293.6 30.74,-53.1 57.35,-108.1 83.33,-162.4 22.53,-56.3 43.4,-112.9 61.34,-170.1 4.9,-15.4 -3.7,-31.8 -19.16,-36.7 -10.15,-3.1 -20.75,-0.5 -28.19,6.1 l -1.42,1.2"
         style="fill:#371a45;fill-opacity:1;fill-rule:nonzero;stroke:none"
         id="path84" />
      <path
         d="m 21868.3,11024.1 c 43.4,11.9 98.6,22.5 148.5,33.5 l 153.6,33.1 c 102.1,23.7 204.6,46.6 305.1,78.6 101.1,31.1 197.8,72.6 293.5,121.3 96.7,48.3 184,112.2 275.5,182.7 l 1.3,1 c 9.6,7.4 23.3,5.6 30.7,-4 5.1,-6.6 5.8,-15.2 2.7,-22.2 -48,-108 -115.8,-211.9 -201.4,-299.3 -85.9,-86.3 -183.3,-164.7 -289.8,-225.5 -106.1,-61.3 -218.2,-113.7 -335.4,-147.5 -58.6,-17.2 -118,-31.2 -178.5,-39.8 -61.5,-9.6 -118.9,-14.2 -188.4,-11.4 -82.9,3.4 -147.4,73.4 -144.1,156.3 2.8,67 49,122 110.5,138.9 l 16.2,4.3"
         style="fill:#371a45;fill-opacity:1;fill-rule:nonzero;stroke:none"
         id="path86" />
      <path
         d="m 26074.7,11210.9 c 43.4,11.8 98.6,22.5 148.5,33.5 l 153.7,33.1 c 102,23.6 204.5,46.5 305.1,78.5 101,31.1 197.7,72.7 293.4,121.4 96.8,48.3 184,112.2 275.5,182.6 l 1.3,1 c 9.6,7.4 23.4,5.6 30.7,-3.9 5.1,-6.6 5.8,-15.2 2.7,-22.3 -48,-107.9 -115.8,-211.8 -201.4,-299.2 -85.9,-86.4 -183.3,-164.7 -289.8,-225.5 -106.1,-61.3 -218.1,-113.8 -335.4,-147.5 -58.5,-17.2 -118,-31.3 -178.5,-39.8 -61.5,-9.6 -118.9,-14.2 -188.4,-11.4 -82.9,3.4 -147.4,73.3 -144.1,156.2 2.8,67.1 49,122.1 110.5,138.9 l 16.2,4.4"
         style="fill:#371a45;fill-opacity:1;fill-rule:nonzero;stroke:none"
         id="path88" />
      <path
         d="m 28541.3,16128.9 c -601.5,-175.2 -1344,-38 -1344,-38 0,0 -32,-884.8 -529.7,-714.3 -160.6,55.1 -294.3,382.8 -387.5,696.3 -139.7,468.7 -423.3,883 -820.6,1168 -76.9,55.1 -154.2,108.5 -232,159.8 -1305.5,863.7 -2688.3,1208.5 -2688.3,1208.5 l -214.1,1975.8 -126.4,1167.1 -6,54.7 c 227.7,-43.6 499.4,-141.4 797.2,-276.9 1497.7,-679.6 3647,-2302.5 4122,-2725.5 569.9,-507.5 2267.1,-306.3 2456,-1345.7 131.1,-721.5 -229.9,-1098.3 -1026.6,-1329.8"
         style="fill:#ffffff;fill-opacity:1;fill-rule:nonzero;stroke:none"
         id="path90" />
      <path
         d="m 26790.1,15526.1 c -15.6,0 -34.3,3 -56.8,9.4 -11.5,2.6 -10.8,4.1 -11.4,4.1 -0.2,0 -0.4,-0.1 -0.9,-0.2 -3.8,4.5 -7.2,3.4 -13.8,10.9 -3,2.8 -6.1,5.6 -9.4,8.1 l -10.5,12 c -7.2,7 -14.5,17.8 -22,27.6 -60.6,84.1 -112.6,204.8 -156.2,324.3 -11.3,31.5 -22.2,63.4 -32.8,95.5 6,-2.8 11.9,-5.2 17.9,-7.3 43.3,-14.8 82.4,-21.5 117.7,-21.5 198.9,0 277.3,215.1 307.2,414.2 25.3,167.8 169,290.7 335.9,290.7 9.3,0 18.7,-0.4 28.1,-1.2 108.6,-8.9 235.5,-15.7 370.2,-15.7 233.4,0 490,20.5 714.6,85.8 550.9,160.1 893.3,389.4 1009,754.3 14.2,-45.7 24.1,-92 31,-147 10.2,-56 11.2,-110.4 15,-165.1 0.4,-107.9 -13.9,-211.2 -48.9,-304 -34.8,-92.9 -90.4,-175.6 -164,-248.1 -150.4,-143.9 -363.2,-243.5 -585.9,-319.2 -115.4,-37.3 -222.2,-68.3 -336.4,-87.3 -114.3,-18.5 -231.5,-29.3 -349.8,-33.6 -36.8,-1.4 -73.6,-2 -110.6,-2 -82.1,0 -164.5,3.2 -246.8,8.4 -118.1,7.7 -241.7,21.2 -352.3,39.8 l -192,32.5 -9.8,-194.3 c -2.7,-54.6 -10.5,-121.1 -20.8,-180.4 -10.7,-60.5 -24.4,-119.9 -42.6,-174.4 -17.8,-54.8 -40.6,-104.8 -66.1,-142.8 -25.9,-38 -52.2,-60.4 -73.3,-67.2 -9.2,-4.1 -20.2,-6.3 -33.5,-6.3 m -772.4,1427.5 c -124.3,152.5 -268.9,288.5 -427.6,403.5 l -172.1,119.6 -86.2,59.7 -87.9,56.7 -175.8,113.7 -179.5,107.1 -89.7,53.8 -91,51.1 -182.5,101.8 c -123.5,64 -246.5,129.5 -373.4,186.6 -252,117.9 -511.1,220 -776,303.9 -132.7,41.2 -267.7,75.7 -404.5,102.8 -115.6,21.9 -231.4,40.3 -350.8,47.6 179.1,104.6 381.7,158.8 586.3,158.8 109.4,0 219.4,-15.5 326.7,-47.1 365.5,-107.5 860.5,-301.9 1520.4,-738.6 77.7,-51.3 155.1,-104.6 232,-159.8 325.9,-233.7 575.4,-554.7 731.6,-921.2"
         style="fill:#b9afbe;fill-opacity:1;fill-rule:nonzero;stroke:none"
         id="path92" />
      <path
         d="m 22552.8,18664.4 c 143.6,-3.4 281.3,-24.5 418.7,-50.5 136.8,-27.1 271.8,-61.6 404.5,-102.8 264.9,-83.9 524,-186 776,-303.9 126.9,-57.1 249.9,-122.6 373.4,-186.6 l 182.5,-101.8 91,-51.1 89.7,-53.8 179.5,-107.1 175.8,-113.7 87.9,-56.7 86.2,-59.7 172.1,-119.6 c 238.6,-172.9 445.2,-393.2 599.2,-645.7 77.4,-125.9 142.8,-259.5 193.2,-398.7 12.6,-34.8 25,-69.7 35.5,-105.2 l 30,-99.5 c 19,-62.9 39.3,-124.9 61.1,-185.7 43.6,-119.5 95.6,-240.2 156.2,-324.3 7.5,-9.8 14.8,-20.6 22,-27.6 l 10.5,-12 c 3.3,-2.5 6.4,-5.3 9.4,-8.1 6.6,-7.5 10,-6.4 13.8,-10.9 2.6,0.9 -2,-0.7 12.3,-3.9 41.6,-11.9 70.2,-12.2 90.3,-3.1 21.1,6.8 47.4,29.2 73.3,67.2 25.5,38 48.3,88 66.1,142.8 18.2,54.5 31.9,113.9 42.6,174.4 10.3,59.3 18.1,125.8 20.8,180.4 l 9.8,194.3 192,-32.5 c 110.6,-18.6 234.2,-32.1 352.3,-39.8 119.3,-7.6 239,-10.8 357.4,-6.4 118.3,4.3 235.5,15.1 349.8,33.6 114.2,19 221,50 336.4,87.3 222.7,75.7 435.5,175.3 585.9,319.2 73.6,72.5 129.2,155.2 164,248.1 35,92.8 49.3,196.1 48.9,304 -3.8,54.7 -4.8,109.1 -15,165.1 -7.2,57.8 -17.9,106.1 -33.2,154.1 -30.7,95.6 -81.8,180.6 -151.6,254.5 -139.6,148.6 -350.7,248.2 -574,323.1 -224.8,75.3 -465,128.7 -709.7,188.2 -122.5,29.9 -246.6,61.2 -372,100.1 -125.3,39.3 -252.5,85.5 -378.3,154.7 l -47,26.5 -46.5,30.8 c -31.1,19.2 -60.6,45.4 -90.5,69 l -69.3,59.8 -69.9,58.7 c -94.3,78 -191.3,154.8 -288.5,231.2 -195.2,152.2 -393.6,301.4 -593.8,448.3 -400.4,293.5 -807.9,578.1 -1222.7,850.2 -415.4,270.7 -835.1,535.5 -1271.1,764.8 -219.2,112.4 -442.4,213.1 -658.8,323.2 -219.4,106.8 -429.6,215.2 -649.3,343.8 l -2.4,1.4 c -28.3,16.6 -37.9,53 -21.3,81.3 9.9,16.9 27.2,27.2 45.3,29.1 66.3,6.8 135.1,10.3 200.3,4 32.9,-3 66.2,-4.9 99.1,-9.1 32.6,-4.6 64.5,-10.8 96.8,-16.7 129,-24.5 252.4,-64.1 372.3,-110.3 241.5,-89.7 464.2,-214.8 684.1,-340.4 220,-125.5 439.5,-250 654.6,-381.4 215.5,-130.9 427.6,-266.2 637.9,-404 420.5,-275.8 832.3,-563.4 1237.4,-860.4 202.5,-148.6 403.3,-299.6 602,-454.5 99.2,-77.9 198,-156.1 296.1,-237.3 l 73.6,-61.7 72.5,-62.6 c 37,-30 76.7,-60 124.6,-84.7 188.3,-102.9 427.3,-162.9 665.7,-221.7 240.3,-58.7 488.7,-113.2 737.8,-196.4 124.5,-41.9 249.4,-91.3 371.2,-156.8 121.5,-65.3 240.7,-147.8 342.5,-255.8 102,-107.2 182.8,-241.3 228,-383.6 22.9,-70.6 38.2,-145.2 46.4,-211.1 11.9,-67.2 14.4,-137.8 18.4,-207.7 1.1,-141.6 -17.7,-289.7 -71,-430.7 -52.5,-141.1 -140.3,-269.7 -245.1,-371.9 -213.8,-202.6 -468.3,-312.9 -715.7,-398.4 -63.5,-18.9 -122.4,-40.9 -189.8,-56.9 -66,-18.5 -132.1,-30.8 -198.3,-43.4 -132.2,-21.5 -264.1,-33.4 -395.3,-38.1 -131.3,-4.9 -261.6,-1.4 -391.4,6.9 -131,8.8 -256.1,21.8 -391.8,44.8 l 201.8,161.8 c -4.2,-81.9 -13,-151.2 -25.7,-226.5 -13,-74 -29.9,-148.1 -54.8,-223.2 -24.8,-74.9 -57,-151.3 -107.6,-226.9 -50.1,-73.9 -125.1,-153.9 -233.2,-194.6 -52.6,-21.3 -110.1,-29.8 -163.3,-29.2 -26.7,0.6 -53.1,2.2 -77.2,7.1 -25.5,3.5 -48.3,9.8 -70.9,16.6 -19.2,4.2 -54,19.2 -82.7,33.8 -23.7,15.4 -51.2,32.5 -68.6,49.6 l -28.7,26.1 -23.7,26.1 c -16.6,17.7 -28.8,34.9 -42,52.3 -50.5,69.6 -86.2,138 -118.4,206.2 -31.7,68.1 -59,136 -83.5,203.8 -24.4,67.8 -46.5,135.7 -67,203.5 l -29.1,96.7 c -8.8,30.1 -19.3,59.5 -30,88.9 -42.5,117.8 -97.9,230.8 -163.5,337.5 -130.6,214.1 -305.1,400.2 -508.6,547.9 -432.5,313.1 -905.1,570.8 -1393.2,792.6 -485,230.9 -984.9,421.4 -1471,680.7 l -1.3,0.7 c -28.4,15.2 -39.2,50.6 -24,79 10.7,20.1 31.5,31.3 52.8,30.9"
         style="fill:#371a45;fill-opacity:1;fill-rule:nonzero;stroke:none"
         id="path94" />
      <path
         d="m 17753.8,18488.2 c -83.9,0 -167.7,1.7 -251.7,5.2 -114.9,5.1 -229.9,13.3 -344.8,24.8 -315.7,31.6 -630.5,88.4 -941.5,171.3 -257.2,68.8 -512.6,155.1 -763.4,259.7 -242.2,100.9 -480,218.3 -712.3,353.2 -37.1,147.3 -70.3,287.9 -99.7,419.5 59.2,-29.8 118.8,-58.6 178.6,-86.3 248.1,-115.6 508.6,-216 774.3,-298.3 310.9,-96.6 634,-168.9 961,-215.1 116.8,-16.1 235.5,-29.2 353.2,-39.1 169.1,-13.8 337.6,-20.7 505.6,-20.7 1874.2,0 3653.5,851.7 4826.8,2309.6 l 85.2,-787 v 0 c -1164.9,-1359.7 -2850.9,-2096.8 -4571.3,-2096.8"
         style="fill:#b9afbe;fill-opacity:1;fill-rule:nonzero;stroke:none"
         id="path96" />
      <path
         d="m 14740.1,19302.4 c -47.2,27.4 -94.1,55.5 -140.8,84.3 -23.5,14.5 -46.6,29.5 -70.1,44.4 -33.4,140.1 -63.1,272.6 -89.3,396.4 66.3,-36.5 133.2,-71.7 200.5,-105.6 29.4,-131.6 62.6,-272.2 99.7,-419.5"
         style="fill:#371a45;fill-opacity:1;fill-rule:nonzero;stroke:none"
         id="path98" />
      <path
         d="m 22325.1,20585 v 0 l -85.2,787 c 27.9,34.7 55.4,69.7 82.7,105.1 9.1,-0.2 18.2,-0.3 27.3,-0.3 94.7,0 188.7,10.2 281.3,29.8 66.1,-33.6 132.5,-66.5 199.8,-99.3 22.1,-11.2 44.3,-22.4 66.5,-33.5 -5.8,-9.5 -11.6,-18.9 -17.4,-28.4 -31.2,-50.4 -63.2,-100.8 -95.7,-150 -141.8,-215.7 -295.2,-419 -459.3,-610.4"
         style="fill:#b9afbe;fill-opacity:1;fill-rule:nonzero;stroke:none"
         id="path100" />
      <path
         d="m 22897.5,21373.8 c -22.2,11.1 -44.4,22.3 -66.5,33.5 -67.3,32.8 -133.7,65.7 -199.8,99.3 82.5,17.4 164,42.4 243.8,74.3 37.8,-16.3 76.1,-33.3 114.9,-51 -30,-52.3 -60.9,-104.3 -92.4,-156.1"
         style="fill:#371a45;fill-opacity:1;fill-rule:nonzero;stroke:none"
         id="path102" />
      <path
         d="m 11685.1,23427.7 c 304,-958.8 848.7,-1845.6 1614.9,-2562.9 156.4,-146.2 321.2,-285.3 495.3,-416.4 84.4,-64 171.9,-126 261,-186.8 269.8,-181.8 548.8,-338.6 834.9,-471.1 246.3,-114.8 498.2,-211.1 752.8,-290 307.4,-95.5 619.7,-164.6 933.6,-209 114.5,-15.8 229.1,-28.5 343.8,-38.1 2099,-171.9 4226.6,764.2 5487,2635 1857.4,2755.5 1128.8,6494.8 -1626.2,8352 -530.9,357.3 -1098.5,619.9 -1682,789 -68,20.5 -136.9,39 -206,56 -184.7,46.9 -370.5,84.7 -557,113.4 -431.4,66.3 -866.6,84.6 -1297.1,56.8 -430.4,-27.2 -857.1,-100.8 -1271.2,-218.9 -131.6,-37.4 -262.1,-79.2 -391.3,-125.9 -193.7,-69.9 -384,-149.3 -570.7,-239.6 -930.5,-446.7 -1758.3,-1139.5 -2376.8,-2057.6 -1068.5,-1585 -1281,-3495.3 -745,-5185.9"
         style="fill:#ffffff;fill-opacity:1;fill-rule:nonzero;stroke:none"
         id="path104" />
      <path
         d="m 17414.1,19404.1 c -62.5,0 -125.2,1 -187.9,3 837.7,80.8 1643.1,329.8 2354.8,740.2 746,430.1 1360.4,1010.9 1825,1717.9 158.4,-150.7 337.7,-259.4 531.9,-322.9 -1108.7,-1350.5 -2772.4,-2138.2 -4523.8,-2138.2 m -793.1,315.6 c -554.6,0 -1117.9,76.5 -1670.2,231.6 -144.5,67.3 -287,141.1 -426.6,220.7 -0.1,0.1 -0.1,0.1 -0.1,0.1 -2.1,1.2 -4.1,2.3 -6.2,3.5 -0.2,0.1 -0.4,0.2 -0.6,0.4 -1.8,1 -3.7,2.1 -5.6,3.2 -0.4,0.2 -0.8,0.5 -1.3,0.7 -1.6,1 -3.3,1.9 -5,2.9 -0.5,0.3 -1,0.6 -1.6,0.9 -1.5,0.9 -3,1.8 -4.6,2.7 -0.7,0.4 -1.3,0.7 -2,1.1 -1.4,0.8 -2.8,1.6 -4.2,2.5 -0.8,0.4 -1.6,0.9 -2.4,1.3 -1.2,0.8 -2.5,1.5 -3.8,2.3 -0.9,0.5 -1.8,1 -2.7,1.5 -1.2,0.7 -2.4,1.4 -3.5,2.1 -1,0.5 -2,1.1 -2.9,1.7 -1.1,0.6 -2.2,1.3 -3.3,1.9 -1.1,0.6 -2.1,1.2 -3.1,1.8 -1,0.6 -2.1,1.2 -3.2,1.8 -1,0.7 -2.1,1.3 -3.2,1.9 -1,0.6 -2,1.2 -3,1.8 -1.1,0.6 -2.2,1.3 -3.3,1.9 -1,0.6 -1.9,1.2 -2.9,1.7 -1.1,0.7 -2.3,1.4 -3.5,2.1 -0.9,0.5 -1.7,1 -2.6,1.6 -1.3,0.7 -2.5,1.4 -3.7,2.1 -0.8,0.5 -1.7,1 -2.5,1.5 -1.3,0.8 -2.6,1.5 -3.8,2.3 -0.8,0.4 -1.6,0.9 -2.4,1.4 -1.3,0.7 -2.6,1.5 -3.9,2.3 -0.8,0.4 -1.5,0.9 -2.3,1.3 -1.3,0.8 -2.7,1.6 -4,2.4 -0.7,0.5 -1.4,0.9 -2.2,1.3 -1.3,0.8 -2.7,1.6 -4,2.5 -0.7,0.4 -1.4,0.8 -2.2,1.2 -1.3,0.9 -2.7,1.7 -4.1,2.5 -0.7,0.4 -1.3,0.8 -2,1.2 -1.4,0.9 -2.9,1.7 -4.3,2.6 -0.6,0.4 -1.2,0.7 -1.8,1.1 -1.5,0.9 -3,1.8 -4.4,2.6 -0.6,0.4 -1.2,0.8 -1.8,1.1 -1.5,0.9 -3,1.8 -4.4,2.7 -0.6,0.3 -1.2,0.7 -1.7,1 -1.5,0.9 -3,1.8 -4.6,2.8 -0.5,0.3 -1,0.6 -1.6,0.9 -1.5,1 -3,1.9 -4.6,2.8 -0.5,0.3 -1,0.7 -1.5,1 -1.6,0.9 -3.1,1.9 -4.7,2.8 -0.5,0.3 -1,0.6 -1.4,0.9 -1.6,1 -3.1,1.9 -4.7,2.9 -0.5,0.3 -1,0.6 -1.5,0.9 -1.6,0.9 -3.1,1.9 -4.6,2.8 -0.6,0.3 -1.1,0.6 -1.6,1 -1.5,0.9 -3.1,1.9 -4.6,2.8 -0.5,0.3 -1,0.6 -1.5,0.9 -1.6,1 -3.1,1.9 -4.7,2.9 -0.5,0.3 -0.9,0.6 -1.4,0.9 -1.6,1 -3.2,1.9 -4.8,2.9 -0.4,0.3 -0.9,0.6 -1.3,0.8 -1.6,1 -3.2,2 -4.8,3 -0.4,0.3 -0.9,0.6 -1.3,0.8 -1.6,1 -3.2,2 -4.9,3 -0.4,0.3 -0.8,0.6 -1.2,0.8 -1.6,1 -3.3,2 -4.9,3 -0.4,0.3 -0.8,0.6 -1.2,0.8 -1.7,1 -3.3,2.1 -4.9,3.1 -0.4,0.2 -0.8,0.5 -1.2,0.7 -1.7,1.1 -3.3,2.1 -5,3.1 -0.3,0.3 -0.7,0.5 -1.1,0.7 -1.6,1.1 -3.3,2.1 -5,3.2 -0.3,0.2 -0.7,0.4 -1.1,0.6 -1.6,1.1 -3.3,2.2 -5,3.2 -0.3,0.2 -0.7,0.4 -1,0.6 -1.7,1.1 -3.4,2.2 -5.1,3.3 -0.3,0.2 -0.6,0.4 -1,0.6 -1.7,1.1 -3.4,2.1 -5.1,3.2 -0.3,0.2 -0.6,0.4 -1,0.6 -1.7,1.1 -3.4,2.2 -5.1,3.3 -0.3,0.2 -0.6,0.4 -0.8,0.5 -1.8,1.2 -3.6,2.3 -5.3,3.4 -0.3,0.1 -0.5,0.3 -0.7,0.4 -1.8,1.2 -3.6,2.3 -5.4,3.4 -0.2,0.2 -0.5,0.4 -0.8,0.6 -1.8,1.1 -3.5,2.2 -5.2,3.3 -0.3,0.2 -0.5,0.4 -0.8,0.5 -1.8,1.2 -3.6,2.3 -5.3,3.4 -0.3,0.2 -0.5,0.3 -0.7,0.5 -1.8,1.1 -3.6,2.3 -5.4,3.4 -0.2,0.2 -0.5,0.3 -0.7,0.5 -1.8,1.1 -3.6,2.3 -5.3,3.4 -0.3,0.2 -0.5,0.3 -0.8,0.5 -1.7,1.1 -3.5,2.3 -5.3,3.4 -0.2,0.2 -0.4,0.3 -0.7,0.5 -1.7,1.1 -3.5,2.3 -5.3,3.4 -0.3,0.2 -0.5,0.4 -0.8,0.6 -1.7,1.1 -3.5,2.2 -5.2,3.3 -0.3,0.2 -0.6,0.4 -0.9,0.6 -1.7,1.1 -3.4,2.3 -5.2,3.4 -0.2,0.1 -0.4,0.3 -0.7,0.5 -1.8,1.1 -3.5,2.3 -5.3,3.4 -0.2,0.2 -0.4,0.3 -0.6,0.4 -1.8,1.2 -3.6,2.4 -5.4,3.6 -0.2,0.1 -0.4,0.2 -0.5,0.3 -1.9,1.2 -3.7,2.4 -5.6,3.6 -0.1,0.1 -0.2,0.2 -0.4,0.3 -1.8,1.3 -3.7,2.5 -5.5,3.7 -0.2,0.1 -0.4,0.3 -0.6,0.4 -1.8,1.2 -3.6,2.4 -5.4,3.5 -0.3,0.2 -0.5,0.4 -0.8,0.5 -1.7,1.2 -3.5,2.4 -5.2,3.5 -0.2,0.2 -0.4,0.3 -0.6,0.4 -1.8,1.2 -3.6,2.4 -5.4,3.6 -0.2,0.1 -0.3,0.2 -0.5,0.3 -1.8,1.2 -3.7,2.5 -5.5,3.7 -0.2,0.1 -0.3,0.2 -0.5,0.3 -1.8,1.2 -3.6,2.4 -5.5,3.7 -0.4,0.2 -0.8,0.5 -1.2,0.8 -1.6,1 -3.2,2.1 -4.7,3.2 -0.5,0.3 -1,0.6 -1.5,1 -1.5,1 -3,2 -4.5,3 -2,1.3 -4,2.7 -6,4 -95.4,65.1 -178.5,124.5 -254.6,182.1 -1.2,1 -2.5,2 -3.8,2.9 -98.6,74.4 -195.9,152.8 -290.8,234.5 930.2,-541.4 1967.8,-828.4 3003.4,-828.4 475.6,0 950.8,60.5 1415,184.7 1293.6,346 2330.2,1139 2984.8,2250 48.6,-103 104.5,-200.3 167.6,-291.1 -442,-701.4 -1036.3,-1274.6 -1763.9,-1694.2 -829.9,-478.5 -1796,-723.7 -2789.3,-723.6 m 6594.5,6270.2 c -58.3,24 -118.2,43.7 -179.4,59.1 30.5,189.2 51.8,379.1 64,569.2 49.8,-207 88.3,-417.1 115.4,-628.3"
         style="fill:#b9afbe;fill-opacity:1;fill-rule:nonzero;stroke:none"
         id="path106" />
      <path
         d="m 11848,23479.3 c 301.2,-949.9 843.7,-1810.9 1568.8,-2489.8 153.6,-143.7 315.6,-279.8 481.2,-404.6 76.1,-57.6 159.2,-117 254.6,-182.1 257.7,-173.7 530.6,-327.7 810.4,-457.2 234.5,-109.3 480.5,-204.1 731.6,-281.9 293.5,-91.2 598.6,-159.4 906.9,-203 110.3,-15.2 222.9,-27.7 334.2,-37 2107.7,-173 4150.8,808.4 5331,2560.2 1801.6,2672.7 1092.7,6313 -1580.1,8114.8 -507.3,341.4 -1057,599.4 -1634,766.6 -63.7,19.2 -128.4,36.7 -199.3,54.2 -179.7,45.6 -361.7,82.6 -542.1,110.4 -414.8,63.8 -838.8,82.3 -1260.1,55.2 -417.4,-26.4 -833,-98 -1235.3,-212.7 -129.3,-36.8 -257.2,-78 -380.3,-122.3 -191.7,-69.3 -378.2,-147.6 -554.2,-232.7 -931,-447 -1729.4,-1138.2 -2309.5,-1999.3 -1003.4,-1488.4 -1267.2,-3325 -723.8,-5038.8 v 0 m 5565.1,-4416.9 c -168,0 -336.5,6.9 -505.6,20.7 -117.7,9.9 -236.4,23 -353.2,39.1 -327,46.2 -650.1,118.5 -961,215.1 -265.7,82.3 -526.2,182.7 -774.3,298.3 -295.8,137 -584.6,300 -858.1,484.3 -101,68.9 -188.7,131.6 -268.8,192.3 -175,131.8 -346.3,275.8 -508.8,427.7 -767.8,718.9 -1342.2,1630.4 -1661.1,2636.1 v 0 c -575.1,1813.8 -295.9,3757.7 766.2,5333.1 613.9,911.4 1459.3,1643.2 2444.5,2116.2 186.2,90 383.7,172.9 586.6,246.2 130.5,47.1 265.9,90.7 402.7,129.6 425.7,121.3 865.5,197.1 1307.1,225.1 445.7,28.7 894.6,9 1333.9,-58.5 191.1,-29.5 383.9,-68.7 573,-116.7 75.3,-18.5 145.4,-37.6 213.1,-57.9 609.5,-176.6 1191.4,-449.6 1728.3,-811 2829.1,-1907.1 3579.4,-5760.2 1672.6,-8589.2 -1154.6,-1713.6 -3089.1,-2730.5 -5137.1,-2730.5"
         style="fill:#371a45;fill-opacity:1;fill-rule:nonzero;stroke:none"
         id="path108" />
      <path
         d="m 11848,23479.3 c 301.2,-949.9 843.7,-1810.9 1568.8,-2489.8 153.6,-143.7 315.6,-279.8 481.2,-404.6 76.1,-57.6 159.2,-117 254.6,-182.1 257.7,-173.7 530.6,-327.7 810.4,-457.2 234.5,-109.3 480.5,-204.1 731.6,-281.9 293.5,-91.2 598.6,-159.4 906.9,-203 110.3,-15.2 222.9,-27.7 334.2,-37 2107.7,-173 4150.8,808.4 5331,2560.2 1801.6,2672.7 1092.7,6313 -1580.1,8114.8 -507.3,341.4 -1057,599.4 -1634,766.6 -63.7,19.2 -128.4,36.7 -199.3,54.2 -179.7,45.6 -361.7,82.6 -542.1,110.4 -414.8,63.8 -838.8,82.3 -1260.1,55.2 -417.4,-26.4 -833,-98 -1235.3,-212.7 -129.3,-36.8 -257.2,-78 -380.3,-122.3 -191.7,-69.3 -378.2,-147.6 -554.2,-232.7 -931,-447 -1729.4,-1138.2 -2309.5,-1999.3 -1003.4,-1488.4 -1267.2,-3325 -723.8,-5038.8 v 0 m 5565.1,-4416.9 c -168,0 -336.5,6.9 -505.6,20.7 -117.7,9.9 -236.4,23 -353.2,39.1 -327,46.2 -650.1,118.5 -961,215.1 -265.7,82.3 -526.2,182.7 -774.3,298.3 -295.8,137 -584.6,300 -858.1,484.3 -101,68.9 -188.7,131.6 -268.8,192.3 -175,131.8 -346.3,275.8 -508.8,427.7 -767.8,718.9 -1342.2,1630.4 -1661.1,2636.1 v 0 c -575.1,1813.8 -295.9,3757.7 766.2,5333.1 613.9,911.4 1459.3,1643.2 2444.5,2116.2 186.2,90 383.7,172.9 586.6,246.2 130.5,47.1 265.9,90.7 402.7,129.6 425.7,121.3 865.5,197.1 1307.1,225.1 445.7,28.7 894.6,9 1333.9,-58.5 191.1,-29.5 383.9,-68.7 573,-116.7 75.3,-18.5 145.4,-37.6 213.1,-57.9 609.5,-176.6 1191.4,-449.6 1728.3,-811 2829.1,-1907.1 3579.4,-5760.2 1672.6,-8589.2 -1154.6,-1713.6 -3089.1,-2730.5 -5137.1,-2730.5"
         style="fill:#371a45;fill-opacity:1;fill-rule:nonzero;stroke:none"
         id="path110" />
      <path
         d="m 12335.7,22029.8 c 2998.2,-3082.5 8038.1,-2260.3 9086.8,1867.7 713.5,2808.4 -1485.3,5675.3 -4226.6,6187.9 -1995.1,373 -4106,-135.6 -5531.5,-3073.7 0,0 -430.2,-1398.2 -225.3,-2423.2 204.9,-1024.9 577.1,-1987.2 577.1,-1987.2 l 319.5,-571.5"
         style="fill:#371a45;fill-opacity:1;fill-rule:nonzero;stroke:none"
         id="path112" />
      <path
         d="m 16606.5,20335.6 c -1453.1,0.1 -2912.7,601.7 -4038.1,1702.8 795.3,-268.4 1611.9,-400.9 2413.2,-400.9 1855.9,0 3630.7,710.2 4876.8,2086.6 65.8,-82.6 159.4,-133.2 258,-133.2 16.9,0 33.9,1.5 51,4.5 180.5,32.5 296.2,229.3 258.4,439.6 -17.2,96.1 -63.5,178.3 -125.8,236.3 390,543.2 707,1167.9 932.3,1873.1 71,-264.1 117.9,-531.2 140.1,-798.5 -292.3,-374.9 -502.2,-866.1 -572.7,-1413.5 -48.4,-375.6 -28.6,-740.6 53.9,-1071.3 -597,-1169.8 -1619.2,-2004.4 -2920.1,-2352.3 -435.2,-116.5 -880.7,-173.2 -1327,-173.2"
         style="fill:#2a1a3b;fill-opacity:1;fill-rule:nonzero;stroke:none"
         id="path114" />
      <path
         d="m 14950.8,19951.3 c 1541.4,-432.8 3166.2,-253.7 4459.5,492 1235.1,712.2 2085.8,1867.2 2460.2,3340.1 342.4,1347.3 83.7,2789.4 -728.6,4060.6 -889.5,1392.2 -2342.9,2395.9 -3887.8,2684.8 -863.3,161.4 -1667.1,154.9 -2389.3,-19.3 -923.7,-447 -1716.3,-1135.3 -2293,-1991.4 -1003.4,-1488.4 -1267.2,-3325 -723.8,-5038.8 v 0 c 301.2,-949.9 843.7,-1810.9 1568.8,-2489.8 153.6,-143.7 315.6,-279.8 481.2,-404.6 76.1,-57.6 159.2,-117 254.6,-182.1 253.9,-171.1 522.7,-323.2 798.2,-451.5 m 1669.8,-573.2 c -590.3,0 -1189,81.9 -1775.9,248 l -25.3,9.4 c -296.2,137.1 -585,300.1 -858.5,484.4 -101,68.9 -188.7,131.6 -268.8,192.3 -175,131.8 -346.3,275.8 -508.8,427.7 -767.8,719 -1342.2,1630.4 -1661.1,2636.1 v 0 c -575.1,1813.8 -295.9,3757.7 766.2,5333.1 613.9,911.4 1459.3,1643.2 2444.5,2116.2 l 16,7.6 17.3,4.3 c 774.2,189.9 1632.4,199.2 2550.7,27.5 1636,-305.9 3173.6,-1366.4 4113,-2836.7 863.6,-1351.6 1137.7,-2888.9 771.9,-4328.8 -397.7,-1564.4 -1303.9,-2792.6 -2620.8,-3551.9 -881.9,-508.5 -1907.6,-769.2 -2960.4,-769.2"
         style="fill:#371a45;fill-opacity:1;fill-rule:nonzero;stroke:none"
         id="path116" />
      <path
         d="m 12473.8,22133 c 1477.3,-1508.1 3567.2,-2130.4 5459.7,-1624.2 1671.8,447.1 2883.1,1697.6 3323.4,3430.7 303.3,1193.7 73.9,2471.4 -645.9,3597.8 -788.6,1234.3 -2077,2124 -3446.5,2380.1 -2368.9,442.9 -4165.5,-555.7 -5340.4,-2968 -40.3,-137 -401.5,-1406.4 -217.5,-2327.4 188,-940.2 523.7,-1839.5 564.9,-1948.2 l 302.3,-540.8 m 4133,-2139.1 c -1592.3,0 -3189,678.4 -4393.6,1916.8 l -15.7,16.1 -340.6,612.8 c -15.4,39.9 -380,987.8 -585.4,2015.4 -210.9,1055.3 211.5,2448.1 229.6,2506.9 l 9.6,24.3 c 1250.2,2577.1 3173.7,3642.6 5716.6,3167.1 1460.6,-273.1 2833.2,-1219.6 3671.7,-2532 771.2,-1206.8 1015.9,-2579.8 689.2,-3865.9 -471.7,-1856.6 -1771.6,-3196.7 -3566.4,-3676.8 -464.2,-124.2 -939.4,-184.7 -1415,-184.7"
         style="fill:#371a45;fill-opacity:1;fill-rule:nonzero;stroke:none"
         id="path118" />
      <path
         d="m 24092.9,23655.3 c -151.7,-1177.2 -974,-2074.3 -1836.6,-2003.8 -862.6,70.5 -1438.8,1081.9 -1287.1,2259.1 151.7,1177.1 973.9,2074.2 1836.6,2003.7 862.5,-70.5 1438.8,-1081.9 1287.1,-2259"
         style="fill:#ffffff;fill-opacity:1;fill-rule:nonzero;stroke:none"
         id="path120" />
      <path
         d="m 22709.4,25747.4 c -741.4,0 -1435.8,-811.3 -1570.8,-1858.7 -81.6,-633.2 61.9,-1248.7 383.9,-1646.5 203.8,-251.7 462.3,-397 747.8,-420.4 771.8,-62.8 1513.2,769.3 1653.1,1855.3 81.7,633.3 -61.8,1248.8 -383.8,1646.5 -203.8,251.7 -462.4,397.1 -747.8,420.4 -27.5,2.2 -55,3.4 -82.4,3.4 m -359.5,-4270.6 c -35.7,0 -71.6,1.5 -107.5,4.4 -380.7,31.1 -721.5,219.9 -985.5,546 -385.3,475.9 -551.9,1170.3 -457.2,1905.2 163,1264.5 1068.9,2229.6 2020,2152.2 380.7,-31.1 721.5,-219.9 985.5,-546 385.3,-475.8 551.9,-1170.3 457.2,-1905.2 -156.8,-1216.7 -1001.8,-2156.6 -1912.5,-2156.6"
         style="fill:#371a45;fill-opacity:1;fill-rule:nonzero;stroke:none"
         id="path122" />
      <path
         d="m 24121.9,22942.4 c -382.9,-770.3 -1180.1,-1072.2 -1780.6,-674.3 -600.6,397.9 -776.9,1345 -394,2115.3 382.9,770.2 1180.1,1072.1 1780.6,674.2 600.5,-397.9 776.9,-1344.9 394,-2115.2"
         style="fill:#ffffff;fill-opacity:1;fill-rule:nonzero;stroke:none"
         id="path124" />
      <path
         d="m 22711.4,21926.1 c -504,0 -913.1,404.8 -989.5,1050.9 -23.3,196.2 -13.7,396.7 23.6,592.2 -13.3,-533.9 198.3,-1037.7 595.8,-1301.1 179.6,-119 376.8,-175.4 575.2,-175.4 66.9,0 133.9,6.4 200.4,19 -88.7,-71.2 -181.9,-130.7 -278.1,-177.2 -43.1,-5.6 -85.6,-8.4 -127.4,-8.4"
         style="fill:#b9afbe;fill-opacity:1;fill-rule:nonzero;stroke:none"
         id="path126" />
      <path
         d="m 22838.8,21934.5 c 96.2,46.5 189.4,106 278.1,177.2 143.3,27 284.4,82.7 417,164.7 -123.2,-110.7 -259.5,-200.1 -405.4,-261.6 -98.1,-41.4 -195.2,-67.8 -289.7,-80.3"
         style="fill:#371a45;fill-opacity:1;fill-rule:nonzero;stroke:none"
         id="path128" />
      <path
         d="m 22916.5,22092.7 c -198.4,0 -395.6,56.4 -575.2,175.4 -397.5,263.4 -609.1,767.2 -595.8,1301.1 23.8,124.7 58.8,247.4 103.9,365.7 115.5,-563.4 500.4,-909.3 966.4,-909.3 133.9,0 274.4,28.6 417.2,88.7 413.5,174 750.3,573.1 929.1,1043.2 9.7,-45.7 17.1,-93.4 23,-142.1 75.9,-642.7 -199.7,-1333.4 -651.2,-1739 -132.6,-82 -273.7,-137.7 -417,-164.7 -66.5,-12.6 -133.5,-19 -200.4,-19"
         style="fill:#b9afbe;fill-opacity:1;fill-rule:nonzero;stroke:none"
         id="path130" />
      <path
         d="m 23191.5,25152 c -537.3,0 -1071.9,-672.9 -1182.3,-1503.6 -70.6,-532.2 38.6,-1036.3 292.4,-1348.4 139,-171 312,-268.7 500.4,-282.6 551.7,-40.8 1115.5,647 1229.1,1501.9 70.7,532.2 -38.6,1036.3 -292.3,1348.4 -139,171 -312,268.7 -500.4,282.6 -15.7,1.2 -31.3,1.7 -46.9,1.7 z m -339.9,-3478.2 c -24.9,0 -49.8,0.9 -74.7,2.8 -284.6,21 -540.7,162 -740.5,407.8 -312,383.8 -448.8,985.3 -365.9,1609 141.3,1063.6 841.8,1853.1 1593,1797.8 284.6,-21 540.7,-162.1 740.5,-407.9 312,-383.8 448.7,-985.3 365.9,-1609 -136.6,-1028.2 -795.2,-1800.5 -1518.3,-1800.5"
         style="fill:#371a45;fill-opacity:1;fill-rule:nonzero;stroke:none"
         id="path132" />
      <path
         d="m 12614,23764.5 c -539,703.1 -785,1439.2 -635.2,2377.8 15,92.5 33.9,187.4 56.4,284.1 5.1,22.3 10.6,44.3 16.6,66.4 l 0.5,1.2 c 59.3,192.7 146.8,443 269,717.1 368.2,826.8 1050.4,1871 2223.5,2210.1 462.7,133.8 907.5,187.2 1319.8,187.2 1542.2,0 2633.8,-746.6 2545,-826.9 0,0 -318.5,38.8 -808,38.8 -939.5,0 -2509.5,-142.7 -3668.9,-976.3 -1.9,-1.3 -3.7,-2.7 -5.6,-4 -370.9,-267.2 -662.8,-630 -847.8,-1048 -244.7,-552.8 -332.3,-969.6 -395.3,-1339.5 -191,-1125.1 -70,-1688 -70,-1688"
         style="fill:#c3bac7;fill-opacity:1;fill-rule:nonzero;stroke:none"
         id="path134" />
      <path
         d="m 19962.5,24735.5 c -415.5,0 -777,371.5 -822.8,861.3 -48.1,515.4 271.3,966.6 713.5,1008 21.9,2 43.6,3 65.2,3 415.5,0 777,-371.4 822.8,-861.3 48.2,-515.3 -271.2,-966.6 -713.5,-1007.9 -21.9,-2.1 -43.6,-3.1 -65.2,-3.1"
         style="fill:#c3bac7;fill-opacity:1;fill-rule:nonzero;stroke:none"
         id="path136" />
      <path
         d="m 19858.4,23724.1 c -42.2,53 -72.9,119.1 -86.3,193.5 -37.8,210.4 77.9,407.2 258.4,439.6 17.1,3.1 34.2,4.6 51.1,4.6 80.1,0 157,-33.5 218.4,-90.5 -138.3,-192.6 -286,-375.3 -441.6,-547.2"
         style="fill:#c3bac7;fill-opacity:1;fill-rule:nonzero;stroke:none"
         id="path138" />
      <path
         d="m 20116.4,23590.9 c -98.6,0 -192.2,50.6 -258,133.2 155.6,171.9 303.3,354.6 441.6,547.2 62.3,-58 108.6,-140.2 125.8,-236.3 37.8,-210.3 -77.9,-407.1 -258.4,-439.6 -17.1,-3 -34.1,-4.5 -51,-4.5"
         style="fill:#bfbac4;fill-opacity:1;fill-rule:nonzero;stroke:none"
         id="path140" />
      <path
         d="m 18403.5,15905.8 c 15.3,-68.8 235.9,-602.3 235.9,-602.3 0,0 175.9,39.3 391.8,87.5 269.8,60.2 426.1,388.3 349.2,732.8 -76.9,344.6 -357.9,575.1 -627.7,514.9 -182.1,-40.6 -391.8,-87.4 -391.8,-87.4 0,0 17.6,-533.5 42.6,-645.5"
         style="fill:#22a7f0;fill-opacity:1;fill-rule:nonzero;stroke:none"
         id="path142" />
      <path
         d="m 18880.2,15459.7 c 101.5,129 149.3,319 119.1,519.3 -2.8,19.1 -6.4,38.2 -10.7,57.4 -49.3,221.2 -182.8,395.4 -343.5,475.8 l 129.4,28.9 c 21.8,4.9 43.8,7.3 65.8,7.3 194.3,0 384.3,-185.6 442.5,-446.3 32.3,-145 19.1,-290 -37.3,-408.3 -52.4,-110.1 -136.3,-183 -236.1,-205.2 l -129.2,-28.9"
         style="fill:#2976b4;fill-opacity:1;fill-rule:nonzero;stroke:none"
         id="path144" />
      <path
         d="m 18501,15927.7 c 9.2,-37.9 103.3,-275.3 198.8,-508.3 l 309.6,69.2 c 99.8,22.2 183.7,95.1 236.1,205.2 56.4,118.3 69.6,263.3 37.3,408.3 -64.8,290.2 -292.8,487.2 -508.3,439 l -310.7,-69.3 c 8,-203.4 22.6,-478.3 37.2,-544.1 m 138.4,-724.2 c -39.8,0 -76.7,23.8 -92.4,61.8 -52.5,127 -225.1,547.1 -241.1,618.7 v 0 c -26.3,117.8 -43.1,608.4 -44.9,664 -1.6,48 31.2,90.4 78.1,100.9 l 391.8,87.4 c 323.2,72.1 658.3,-192.9 747.1,-590.7 42,-188.3 23.6,-379.3 -51.9,-537.8 -79.5,-166.8 -212,-278.5 -373.1,-314.4 l -391.8,-87.5 c -7.3,-1.6 -14.6,-2.4 -21.8,-2.4"
         style="fill:#371a45;fill-opacity:1;fill-rule:nonzero;stroke:none"
         id="path146" />
      <path
         d="m 18011.7,15818.4 c 76.9,-344.6 357.9,-575.1 627.7,-514.9 269.8,60.2 426.1,388.4 349.2,732.9 -76.9,344.6 -357.9,575.1 -627.7,514.9 -269.8,-60.3 -426.1,-388.4 -349.2,-732.9"
         style="fill:#22a7f0;fill-opacity:1;fill-rule:nonzero;stroke:none"
         id="path148" />
      <path
         d="m 18535.1,15294.2 c -193.9,8.4 -379.1,155.8 -475.2,376.3 96.2,-220.3 281.4,-367.7 475.1,-376.2 l 0.1,-0.1"
         style="fill:#b9afbe;fill-opacity:1;fill-rule:nonzero;stroke:none"
         id="path150" />
      <path
         d="m 18880.1,15459.7 c 101.5,128.9 149.3,318.9 119.2,519.3 30.2,-200.3 -17.6,-390.3 -119.1,-519.3 h -0.1"
         style="fill:#2e568d;fill-opacity:1;fill-rule:nonzero;stroke:none"
         id="path152" />
      <path
         d="m 18552.6,15293.8 c -5.8,0 -11.7,0.1 -17.5,0.4 l -0.1,0.1 c 5.9,-0.2 11.8,-0.4 17.7,-0.4 28.8,0 57.8,3.1 86.7,9.6 96.6,21.6 178.7,77.5 240.7,156.2 h 0.1 c -62,-78.8 -144,-134.7 -240.6,-156.3 -28.9,-6.5 -58,-9.6 -87,-9.6"
         style="fill:#371a45;fill-opacity:1;fill-rule:nonzero;stroke:none"
         id="path154" />
      <path
         d="m 18552.7,15293.9 c -5.9,0 -11.8,0.2 -17.7,0.4 -193.7,8.5 -378.9,155.9 -475.1,376.2 -20.3,46.3 -36.6,95.9 -48.2,148 -10.5,46.5 -16.5,93 -18.4,138.6 105.3,-190.6 280.4,-312.6 460.9,-312.6 28.9,0 58.1,3.2 87,9.7 233,52 381.7,303.9 367.7,594 35.3,-63.6 62.3,-135 79.7,-211.9 4.3,-19.2 7.9,-38.3 10.7,-57.3 30.1,-200.4 -17.7,-390.4 -119.2,-519.3 -62,-78.7 -144.1,-134.6 -240.7,-156.2 -28.9,-6.5 -57.9,-9.6 -86.7,-9.6"
         style="fill:#2976b4;fill-opacity:1;fill-rule:nonzero;stroke:none"
         id="path156" />
      <path
         d="m 18988.6,16036.3 c 5.3,-23.4 9.4,-46.8 12.2,-70.1 -113.8,258 -350.1,414.8 -577.9,363.8 -251.3,-56.3 -404.6,-345.2 -361.2,-663.2 -21.2,47.7 -37.9,98.2 -50,151.7 -76.9,344.4 79.4,672.7 349.1,732.9 269.8,59.8 550.7,-170.4 627.8,-515.1"
         style="fill:#ffffff;fill-opacity:1;fill-rule:nonzero;stroke:none"
         id="path158" />
      <path
         d="m 18448.4,16460.9 c -21.9,0 -43.9,-2.4 -65.7,-7.2 -215.5,-48.2 -338.2,-323.4 -273.4,-613.6 32.4,-144.9 106,-270.5 207.4,-353.7 94.2,-77.3 201.1,-107.7 300.9,-85.3 99.8,22.3 183.7,95.1 236.1,205.2 56.4,118.4 69.7,263.4 37.3,408.3 -58.2,260.8 -248.2,446.3 -442.6,446.3 z m 103.2,-1267.1 c -125.8,0 -251.2,47.3 -361.8,138 -135.7,111.4 -233.7,276.4 -275.7,464.8 -88.8,397.8 101.9,780.1 425,852.3 323,71.7 658.3,-192.9 747.1,-590.7 42.1,-188.4 23.6,-379.4 -51.9,-537.9 -79.5,-166.8 -212,-278.4 -373.1,-314.4 -36.3,-8.1 -73,-12.1 -109.6,-12.1"
         style="fill:#371a45;fill-opacity:1;fill-rule:nonzero;stroke:none"
         id="path160" />
      <path
         d="m 17851.6,13869.1 c -55.5,0 -106.6,36.7 -122.3,92.8 l -331.4,1180.8 c -18.1,64.7 -66.8,117.1 -127,136.5 l -463.2,150 c -106.4,34.5 -187.1,121.2 -215.8,231.9 l -431.2,1664.2 c -17.6,68 23.3,137.3 91.2,154.9 67.8,17.6 137.3,-23.2 154.9,-91.1 l 431.2,-1664.2 c 6.7,-25.8 25.1,-46.4 48,-53.8 l 463.2,-150 c 142.3,-46.1 252,-161.9 293.5,-309.7 l 331.4,-1180.8 c 18.9,-67.6 -20.5,-137.8 -88.1,-156.7 -11.5,-3.2 -23,-4.8 -34.4,-4.8"
         style="fill:#371a45;fill-opacity:1;fill-rule:nonzero;stroke:none"
         id="path162" />
    </g>
  </g>
</svg>
